<?xml version="1.0" encoding="UTF-8" standalone="no"?>
<!DOCTYPE svg PUBLIC "-//W3C//DTD SVG 1.1//EN"
 "http://www.w3.org/Graphics/SVG/1.1/DTD/svg11.dtd">
<!-- Generated by graphviz version 2.43.0 (0)
 -->
<!-- Title: TEL3SIS Pages: 1 -->
<svg width="1322pt" height="161pt"
 viewBox="0.00 0.00 1322.33 161.00" xmlns="http://www.w3.org/2000/svg" xmlns:xlink="http://www.w3.org/1999/xlink">
<g id="graph0" class="graph" transform="scale(1 1) rotate(0) translate(4 157)">
<title>TEL3SIS</title>
<polygon fill="white" stroke="transparent" points="-4,4 -4,-157 1318.33,-157 1318.33,4 -4,4"/>
<g id="clust1" class="cluster">
<title>cluster_pipeline</title>
<path fill="none" stroke="black" d="M543.33,-74C543.33,-74 1036.33,-74 1036.33,-74 1042.33,-74 1048.33,-80 1048.33,-86 1048.33,-86 1048.33,-133 1048.33,-133 1048.33,-139 1042.33,-145 1036.33,-145 1036.33,-145 543.33,-145 543.33,-145 537.33,-145 531.33,-139 531.33,-133 531.33,-133 531.33,-86 531.33,-86 531.33,-80 537.33,-74 543.33,-74"/>
<text text-anchor="middle" x="789.83" y="-133" font-family="Times,serif" font-size="10.00">Vocode Streaming Pipeline</text>
</g>
<!-- Caller -->
<g id="node1" class="node">
<title>Caller</title>
<ellipse fill="none" stroke="black" cx="27.67" cy="-23" rx="27.84" ry="18"/>
<text text-anchor="middle" x="27.67" y="-20.5" font-family="Times,serif" font-size="10.00">Caller</text>
</g>
<!-- Twilio -->
<g id="node2" class="node">
<title>Twilio</title>
<path fill="none" stroke="black" d="M133.33,-41C133.33,-41 103.33,-41 103.33,-41 97.33,-41 91.33,-35 91.33,-29 91.33,-29 91.33,-17 91.33,-17 91.33,-11 97.33,-5 103.33,-5 103.33,-5 133.33,-5 133.33,-5 139.33,-5 145.33,-11 145.33,-17 145.33,-17 145.33,-29 145.33,-29 145.33,-35 139.33,-41 133.33,-41"/>
<text text-anchor="middle" x="118.33" y="-20.5" font-family="Times,serif" font-size="10.00">Twilio</text>
</g>
<!-- Caller&#45;&gt;Twilio -->
<g id="edge1" class="edge">
<title>Caller&#45;&gt;Twilio</title>
<path fill="none" stroke="black" d="M55.75,-23C63.79,-23 72.72,-23 81.24,-23"/>
<polygon fill="black" stroke="black" points="81.33,-26.5 91.33,-23 81.33,-19.5 81.33,-26.5"/>
</g>
<!-- FastAPI Telephony API -->
<g id="node3" class="node">
<title>FastAPI Telephony API</title>
<path fill="none" stroke="black" d="M302.33,-41C302.33,-41 193.33,-41 193.33,-41 187.33,-41 181.33,-35 181.33,-29 181.33,-29 181.33,-17 181.33,-17 181.33,-11 187.33,-5 193.33,-5 193.33,-5 302.33,-5 302.33,-5 308.33,-5 314.33,-11 314.33,-17 314.33,-17 314.33,-29 314.33,-29 314.33,-35 308.33,-41 302.33,-41"/>
<text text-anchor="middle" x="247.83" y="-20.5" font-family="Times,serif" font-size="10.00">FastAPI Telephony API</text>
</g>
<!-- Twilio&#45;&gt;FastAPI Telephony API -->
<g id="edge2" class="edge">
<title>Twilio&#45;&gt;FastAPI Telephony API</title>
<path fill="none" stroke="black" d="M145.44,-23C153.15,-23 162,-23 171.18,-23"/>
<polygon fill="black" stroke="black" points="171.25,-26.5 181.25,-23 171.25,-19.5 171.25,-26.5"/>
</g>
<!-- Vocode Streaming Pipeline -->
<g id="node4" class="node">
<title>Vocode Streaming Pipeline</title>
<path fill="none" stroke="black" d="M491.33,-91C491.33,-91 362.33,-91 362.33,-91 356.33,-91 350.33,-85 350.33,-79 350.33,-79 350.33,-67 350.33,-67 350.33,-61 356.33,-55 362.33,-55 362.33,-55 491.33,-55 491.33,-55 497.33,-55 503.33,-61 503.33,-67 503.33,-67 503.33,-79 503.33,-79 503.33,-85 497.33,-91 491.33,-91"/>
<text text-anchor="middle" x="426.83" y="-70.5" font-family="Times,serif" font-size="10.00">Vocode Streaming Pipeline</text>
</g>
<!-- FastAPI Telephony API&#45;&gt;Vocode Streaming Pipeline -->
<g id="edge3" class="edge">
<title>FastAPI Telephony API&#45;&gt;Vocode Streaming Pipeline</title>
<path fill="none" stroke="black" d="M312.74,-41.05C325.52,-44.66 339.05,-48.48 352.13,-52.18"/>
<polygon fill="black" stroke="black" points="351.45,-55.62 362.03,-54.98 353.36,-48.89 351.45,-55.62"/>
</g>
<!-- Celery Worker Pool -->
<g id="node5" class="node">
<title>Celery Worker Pool</title>
<path fill="none" stroke="black" d="M1302.33,-41C1302.33,-41 1213.33,-41 1213.33,-41 1207.33,-41 1201.33,-35 1201.33,-29 1201.33,-29 1201.33,-17 1201.33,-17 1201.33,-11 1207.33,-5 1213.33,-5 1213.33,-5 1302.33,-5 1302.33,-5 1308.33,-5 1314.33,-11 1314.33,-17 1314.33,-17 1314.33,-29 1314.33,-29 1314.33,-35 1308.33,-41 1302.33,-41"/>
<text text-anchor="middle" x="1257.83" y="-20.5" font-family="Times,serif" font-size="10.00">Celery Worker Pool</text>
</g>
<!-- FastAPI Telephony API&#45;&gt;Celery Worker Pool -->
<g id="edge4" class="edge">
<title>FastAPI Telephony API&#45;&gt;Celery Worker Pool</title>
<path fill="none" stroke="black" stroke-dasharray="5,2" d="M314.66,-16.32C387.33,-9.53 507.8,0 611.83,0 611.83,0 611.83,0 987.83,0 1057.41,0 1136.74,-7.73 1191.12,-14.23"/>
<polygon fill="black" stroke="black" points="1190.96,-17.74 1201.31,-15.47 1191.81,-10.79 1190.96,-17.74"/>
</g>
<!-- STT (Whisper/Deepgram) -->
<g id="node6" class="node">
<title>STT (Whisper/Deepgram)</title>
<path fill="none" stroke="black" d="M674.33,-118C674.33,-118 551.33,-118 551.33,-118 545.33,-118 539.33,-112 539.33,-106 539.33,-106 539.33,-94 539.33,-94 539.33,-88 545.33,-82 551.33,-82 551.33,-82 674.33,-82 674.33,-82 680.33,-82 686.33,-88 686.33,-94 686.33,-94 686.33,-106 686.33,-106 686.33,-112 680.33,-118 674.33,-118"/>
<text text-anchor="middle" x="612.83" y="-97.5" font-family="Times,serif" font-size="10.00">STT (Whisper/Deepgram)</text>
</g>
<!-- Vocode Streaming Pipeline&#45;&gt;STT (Whisper/Deepgram) -->
<g id="edge8" class="edge">
<title>Vocode Streaming Pipeline&#45;&gt;STT (Whisper/Deepgram)</title>
<path fill="none" stroke="black" d="M503.47,-84.1C511.95,-85.34 520.62,-86.62 529.18,-87.87"/>
<polygon fill="black" stroke="black" points="528.76,-91.35 539.16,-89.34 529.77,-84.42 528.76,-91.35"/>
</g>
<!-- LLM -->
<g id="node7" class="node">
<title>LLM</title>
<path fill="none" stroke="black" d="M764.33,-118C764.33,-118 734.33,-118 734.33,-118 728.33,-118 722.33,-112 722.33,-106 722.33,-106 722.33,-94 722.33,-94 722.33,-88 728.33,-82 734.33,-82 734.33,-82 764.33,-82 764.33,-82 770.33,-82 776.33,-88 776.33,-94 776.33,-94 776.33,-106 776.33,-106 776.33,-112 770.33,-118 764.33,-118"/>
<text text-anchor="middle" x="749.33" y="-97.5" font-family="Times,serif" font-size="10.00">LLM</text>
</g>
<!-- STT (Whisper/Deepgram)&#45;&gt;LLM -->
<g id="edge5" class="edge">
<title>STT (Whisper/Deepgram)&#45;&gt;LLM</title>
<path fill="none" stroke="black" d="M686.6,-100C695.46,-100 704.2,-100 712.18,-100"/>
<polygon fill="black" stroke="black" points="712.2,-103.5 722.2,-100 712.2,-96.5 712.2,-103.5"/>
</g>
<!-- Safety Oracle -->
<g id="node8" class="node">
<title>Safety Oracle</title>
<path fill="none" stroke="black" d="M885.33,-118C885.33,-118 824.33,-118 824.33,-118 818.33,-118 812.33,-112 812.33,-106 812.33,-106 812.33,-94 812.33,-94 812.33,-88 818.33,-82 824.33,-82 824.33,-82 885.33,-82 885.33,-82 891.33,-82 897.33,-88 897.33,-94 897.33,-94 897.33,-106 897.33,-106 897.33,-112 891.33,-118 885.33,-118"/>
<text text-anchor="middle" x="854.83" y="-97.5" font-family="Times,serif" font-size="10.00">Safety Oracle</text>
</g>
<!-- LLM&#45;&gt;Safety Oracle -->
<g id="edge6" class="edge">
<title>LLM&#45;&gt;Safety Oracle</title>
<path fill="none" stroke="black" d="M776.45,-100C784.2,-100 792.97,-100 801.76,-100"/>
<polygon fill="black" stroke="black" points="802.02,-103.5 812.02,-100 802.02,-96.5 802.02,-103.5"/>
</g>
<!-- TTS (ElevenLabs) -->
<g id="node9" class="node">
<title>TTS (ElevenLabs)</title>
<path fill="none" stroke="black" d="M1028.33,-118C1028.33,-118 945.33,-118 945.33,-118 939.33,-118 933.33,-112 933.33,-106 933.33,-106 933.33,-94 933.33,-94 933.33,-88 939.33,-82 945.33,-82 945.33,-82 1028.33,-82 1028.33,-82 1034.33,-82 1040.33,-88 1040.33,-94 1040.33,-94 1040.33,-106 1040.33,-106 1040.33,-112 1034.33,-118 1028.33,-118"/>
<text text-anchor="middle" x="986.83" y="-97.5" font-family="Times,serif" font-size="10.00">TTS (ElevenLabs)</text>
</g>
<!-- Safety Oracle&#45;&gt;TTS (ElevenLabs) -->
<g id="edge7" class="edge">
<title>Safety Oracle&#45;&gt;TTS (ElevenLabs)</title>
<path fill="none" stroke="black" d="M897.68,-100C905.79,-100 914.45,-100 923.06,-100"/>
<polygon fill="black" stroke="black" points="923.11,-103.5 933.11,-100 923.11,-96.5 923.11,-103.5"/>
</g>
<!-- Tool Executor -->
<g id="node10" class="node">
<title>Tool Executor</title>
<path fill="none" stroke="black" d="M1017.83,-64C1017.83,-64 955.83,-64 955.83,-64 949.83,-64 943.83,-58 943.83,-52 943.83,-52 943.83,-40 943.83,-40 943.83,-34 949.83,-28 955.83,-28 955.83,-28 1017.83,-28 1017.83,-28 1023.83,-28 1029.83,-34 1029.83,-40 1029.83,-40 1029.83,-52 1029.83,-52 1029.83,-58 1023.83,-64 1017.83,-64"/>
<text text-anchor="middle" x="986.83" y="-43.5" font-family="Times,serif" font-size="10.00">Tool Executor</text>
</g>
<!-- Safety Oracle&#45;&gt;Tool Executor -->
<g id="edge9" class="edge">
<title>Safety Oracle&#45;&gt;Tool Executor</title>
<path fill="none" stroke="black" d="M897.68,-82.62C909.28,-77.8 922.01,-72.51 934.09,-67.49"/>
<polygon fill="black" stroke="black" points="935.73,-70.6 943.62,-63.54 933.04,-64.14 935.73,-70.6"/>
</g>
<!-- StateManager -->
<g id="node11" class="node">
<title>StateManager</title>
<path fill="none" stroke="black" d="M1153.33,-64C1153.33,-64 1088.33,-64 1088.33,-64 1082.33,-64 1076.33,-58 1076.33,-52 1076.33,-52 1076.33,-40 1076.33,-40 1076.33,-34 1082.33,-28 1088.33,-28 1088.33,-28 1153.33,-28 1153.33,-28 1159.33,-28 1165.33,-34 1165.33,-40 1165.33,-40 1165.33,-52 1165.33,-52 1165.33,-58 1159.33,-64 1153.33,-64"/>
<text text-anchor="middle" x="1120.83" y="-43.5" font-family="Times,serif" font-size="10.00">StateManager</text>
</g>
<!-- Tool Executor&#45;&gt;StateManager -->
<g id="edge10" class="edge">
<title>Tool Executor&#45;&gt;StateManager</title>
<path fill="none" stroke="black" d="M1029.96,-46C1041.4,-46 1053.94,-46 1065.94,-46"/>
<polygon fill="black" stroke="black" points="1066.29,-49.5 1076.29,-46 1066.29,-42.5 1066.29,-49.5"/>
</g>
<!-- StateManager&#45;&gt;Celery Worker Pool -->
<g id="edge11" class="edge">
<title>StateManager&#45;&gt;Celery Worker Pool</title>
<path fill="none" stroke="black" d="M1165.66,-38.53C1173.74,-37.16 1182.34,-35.69 1190.9,-34.23"/>
<polygon fill="black" stroke="black" points="1191.64,-37.66 1200.91,-32.53 1190.46,-30.76 1191.64,-37.66"/>
</g>
</g>
</svg>
